<svg xmlns="http://www.w3.org/2000/svg" width="259.248" height="40"><defs><style>.a{fill:#002961}.b{fill:#f88738}</style></defs><path class="a" d="M65.206 25.846a3.27 3.27 0 01-.512.3 5.467 5.467 0 01-.774.3 7.68 7.68 0 01-.986.23 6.96 6.96 0 01-1.155.092 5.774 5.774 0 01-2.334-.451 5.206 5.206 0 01-2.851-2.996 5.988 5.988 0 01-.382-2.142 5.827 5.827 0 01.451-2.311 5.545 5.545 0 013.061-3.015 5.825 5.825 0 012.227-.429 6.891 6.891 0 01.9.061 7.1 7.1 0 01.864.168 4.382 4.382 0 01.719.252 1.941 1.941 0 01.482.3q-.122.184-.191.306t-.145.252a8.788 8.788 0 00-.168.3l-.245.444a1.9 1.9 0 00-.467-.23 4.7 4.7 0 00-.559-.153 5.627 5.627 0 00-.589-.092 5.338 5.338 0 00-.543-.031 4.1 4.1 0 00-3.818 2.51 3.9 3.9 0 00-.016 3.03 4.274 4.274 0 00.826 1.286 3.94 3.94 0 001.271.9 3.9 3.9 0 001.63.337 4.532 4.532 0 00.918-.092 6.713 6.713 0 00.8-.214 4.4 4.4 0 00.6-.245.979.979 0 00.283-.184zm.199-4.744a5.457 5.457 0 01.443-2.18 5.786 5.786 0 013.015-3.046 5.584 5.584 0 014.4 0 5.759 5.759 0 011.805 1.232 5.933 5.933 0 011.225 1.814 5.553 5.553 0 010 4.384 5.863 5.863 0 01-1.225 1.8 5.71 5.71 0 01-1.805 1.217 5.675 5.675 0 01-4.4 0 5.731 5.731 0 01-3.015-3.015 5.478 5.478 0 01-.443-2.206zm1.668.015a4.051 4.051 0 001.178 2.877 4.157 4.157 0 001.286.872 3.848 3.848 0 001.561.321 3.8 3.8 0 001.554-.321 4.075 4.075 0 002.44-3.765 4.049 4.049 0 00-1.178-2.877 4.169 4.169 0 00-1.278-.873 3.794 3.794 0 00-1.553-.321 3.851 3.851 0 00-1.561.321 4.085 4.085 0 00-2.448 3.765zm21.284-5.571v11.6a11.548 11.548 0 00-.827-.888l-1.407-1.408q-.8-.8-1.691-1.668t-1.691-1.661q-.795-.787-1.393-1.408t-.8-.88l-.29-.4.046.489v7.316h-1.683V15.026a8.1 8.1 0 00.558.612q.39.4.918.926t1.163 1.14l1.285 1.24q.651.627 1.286 1.232t1.163 1.125q.527.521.91.918t.536.6l.291.429-.046-.52V15.55zm8.97.612l-.6 1.362a9.829 9.829 0 00-1.247-.367 5.492 5.492 0 00-1.187-.137 2.657 2.657 0 00-1.538.4 1.191 1.191 0 00-.573 1.01 1 1 0 00.413.834 4.6 4.6 0 001.026.566q.612.253 1.331.5a6.231 6.231 0 011.332.65 3.625 3.625 0 011.025 1 2.7 2.7 0 01.413 1.553 3.165 3.165 0 01-.268 1.324 2.794 2.794 0 01-.8 1.018 3.711 3.711 0 01-1.316.658 6.63 6.63 0 01-1.844.229 7.357 7.357 0 01-1.217-.092 6.618 6.618 0 01-.98-.237 5.472 5.472 0 01-.765-.314q-.329-.169-.559-.306l.734-1.454a6.057 6.057 0 001.362.566 4.993 4.993 0 001.362.214 4.688 4.688 0 00.758-.076 3.407 3.407 0 00.864-.268 2.251 2.251 0 00.712-.512 1.15 1.15 0 00.3-.811 1.217 1.217 0 00-.237-.757 2.216 2.216 0 00-.627-.551 5.606 5.606 0 00-.888-.428q-.5-.191-1.018-.4t-1.018-.436a3.924 3.924 0 01-.888-.559 2.643 2.643 0 01-.628-.766 2.16 2.16 0 01-.237-1.048 2.894 2.894 0 01.229-1.117 2.8 2.8 0 01.69-.979 3.452 3.452 0 011.14-.689 4.431 4.431 0 011.584-.26 6.317 6.317 0 011.079.092q.527.092.956.206t.728.222c.205.079.336.13.397.16zm6.237 10.606a4.615 4.615 0 01-1.653-.291 4.113 4.113 0 01-1.339-.819 3.8 3.8 0 01-.9-1.27 4.06 4.06 0 01-.329-1.66v-7.178h1.681v7.132a2.464 2.464 0 00.728 1.783 2.47 2.47 0 00.8.536 2.747 2.747 0 002.013 0 2.454 2.454 0 00.811-.536 2.591 2.591 0 00.543-.8 2.417 2.417 0 00.2-.987v-7.132h1.683v7.178a4.059 4.059 0 01-.329 1.66 3.793 3.793 0 01-.9 1.27 4.1 4.1 0 01-1.347.819 4.673 4.673 0 01-1.662.295zm6.749-.122v-11.1h1.683v9.5h5.509v1.592zm13.966-11.095v1.592h-2.8v9.5h-1.669v-9.5h-2.739v-1.592zm7.674 11.095q-.077-.168-.214-.49t-.314-.742l-.382-.918q-.207-.5-.421-1.033h-3.918l-1.316 3.183h-1.653l4.943-11.616q.092.214.329.78t.566 1.355q.329.789.735 1.744t.827 1.936q.421.979.826 1.928t.742 1.745q.337.8.574 1.355t.329.773zm-4.668-4.591h2.77q-.214-.5-.405-.972t-.353-.857q-.161-.391-.283-.681a11.447 11.447 0 01-.184-.459 2.244 2.244 0 01-.068-.214 4.06 4.06 0 01-.085-.337 2.786 2.786 0 01-.092.337c-.04.122-.066.194-.076.214zm17.287-6.505v11.6a11.54 11.54 0 00-.827-.888l-1.408-1.408q-.8-.8-1.691-1.668t-1.691-1.661q-.795-.787-1.393-1.408t-.8-.88l-.29-.4.046.489v7.316h-1.684V15.026a8.13 8.13 0 00.559.612q.39.4.918.926t1.163 1.14l1.286 1.24q.651.627 1.286 1.232t1.163 1.125q.527.521.91.918t.536.6l.291.429-.046-.52V15.55zm8.74.001v1.592h-2.8v9.5h-1.668v-9.5h-2.74v-1.592zm7.976.611l-.6 1.362a9.829 9.829 0 00-1.247-.367 5.487 5.487 0 00-1.187-.137 2.658 2.658 0 00-1.538.4 1.191 1.191 0 00-.573 1.01 1 1 0 00.413.834 4.594 4.594 0 001.025.566q.612.253 1.331.5a6.23 6.23 0 011.332.65 3.62 3.62 0 011.025 1 2.7 2.7 0 01.413 1.553 3.17 3.17 0 01-.268 1.324 2.791 2.791 0 01-.8 1.018 3.713 3.713 0 01-1.316.658 6.631 6.631 0 01-1.844.229 7.361 7.361 0 01-1.217-.092 6.6 6.6 0 01-.979-.237 5.478 5.478 0 01-.766-.314q-.328-.169-.558-.306l.734-1.454a6.061 6.061 0 001.362.566 5 5 0 001.363.214 4.68 4.68 0 00.758-.076 3.407 3.407 0 00.864-.268 2.245 2.245 0 00.712-.512 1.148 1.148 0 00.3-.811 1.215 1.215 0 00-.237-.757 2.21 2.21 0 00-.627-.551 5.59 5.59 0 00-.888-.428q-.5-.191-1.018-.4t-1.018-.436a3.925 3.925 0 01-.887-.559 2.643 2.643 0 01-.628-.766 2.16 2.16 0 01-.237-1.048 2.894 2.894 0 01.23-1.117 2.8 2.8 0 01.689-.979 3.453 3.453 0 011.14-.689 4.434 4.434 0 011.584-.26 6.311 6.311 0 011.079.092q.527.092.956.206t.727.222c.204.079.335.13.396.16zm12.687 10.484q-.077-.168-.214-.49t-.314-.742l-.382-.918q-.206-.5-.421-1.033h-3.919l-1.316 3.183h-1.653l4.943-11.616q.092.214.329.78t.567 1.355q.328.789.734 1.744t.827 1.936q.421.979.826 1.928t.742 1.745q.337.8.574 1.355t.329.773zm-4.668-4.591h2.771q-.214-.5-.405-.972c-.128-.311-.245-.6-.352-.857s-.2-.487-.283-.681-.143-.347-.183-.459a2.09 2.09 0 01-.069-.214 4.06 4.06 0 01-.085-.337 2.72 2.72 0 01-.092.337 3.061 3.061 0 01-.076.214zm14.277-5.893l-.6 1.362a9.822 9.822 0 00-1.247-.367 5.487 5.487 0 00-1.187-.137 2.658 2.658 0 00-1.538.4 1.191 1.191 0 00-.573 1.01 1 1 0 00.413.834 4.6 4.6 0 001.025.566q.612.253 1.331.5a6.231 6.231 0 011.332.65 3.62 3.62 0 011.025 1 2.7 2.7 0 01.413 1.553 3.17 3.17 0 01-.268 1.324 2.791 2.791 0 01-.8 1.018 3.713 3.713 0 01-1.316.658 6.632 6.632 0 01-1.844.229 7.353 7.353 0 01-1.217-.092 6.593 6.593 0 01-.98-.237 5.471 5.471 0 01-.766-.314q-.328-.169-.558-.306l.734-1.454a6.058 6.058 0 001.362.566 5 5 0 001.363.214 4.68 4.68 0 00.758-.076 3.408 3.408 0 00.864-.268 2.246 2.246 0 00.712-.512 1.148 1.148 0 00.3-.811 1.215 1.215 0 00-.237-.757 2.211 2.211 0 00-.627-.551 5.59 5.59 0 00-.888-.428q-.5-.191-1.018-.4t-1.017-.436a3.919 3.919 0 01-.888-.559 2.643 2.643 0 01-.628-.766 2.16 2.16 0 01-.237-1.048 2.894 2.894 0 01.23-1.117 2.8 2.8 0 01.689-.979 3.458 3.458 0 011.14-.689 4.434 4.434 0 011.584-.26 6.309 6.309 0 011.079.092q.527.092.956.206t.727.222c.205.079.341.13.397.16zm8.451 0l-.6 1.362a9.809 9.809 0 00-1.247-.367 5.487 5.487 0 00-1.187-.137 2.658 2.658 0 00-1.538.4 1.191 1.191 0 00-.573 1.01 1 1 0 00.413.834 4.593 4.593 0 001.025.566q.612.253 1.331.5a6.23 6.23 0 011.332.65 3.627 3.627 0 011.026 1 2.7 2.7 0 01.413 1.553 3.165 3.165 0 01-.268 1.324 2.793 2.793 0 01-.8 1.018 3.715 3.715 0 01-1.317.658 6.631 6.631 0 01-1.844.229 7.355 7.355 0 01-1.217-.092 6.607 6.607 0 01-.98-.237 5.5 5.5 0 01-.766-.314q-.328-.169-.558-.306l.734-1.454a6.057 6.057 0 001.362.566 4.99 4.99 0 001.362.214 4.68 4.68 0 00.758-.076 3.407 3.407 0 00.864-.268 2.253 2.253 0 00.712-.512 1.149 1.149 0 00.3-.811 1.217 1.217 0 00-.237-.757 2.217 2.217 0 00-.627-.551 5.57 5.57 0 00-.888-.428q-.5-.191-1.017-.4t-1.018-.436a3.915 3.915 0 01-.888-.559 2.65 2.65 0 01-.628-.766 2.16 2.16 0 01-.237-1.048 2.894 2.894 0 01.229-1.117 2.807 2.807 0 01.689-.979 3.456 3.456 0 011.14-.689 4.434 4.434 0 011.584-.26 6.31 6.31 0 011.079.092q.528.092.956.206t.728.222c.206.079.337.13.398.16zm1.395 4.944a5.464 5.464 0 01.443-2.18 5.788 5.788 0 013.015-3.046 5.583 5.583 0 014.4 0 5.763 5.763 0 011.806 1.232 5.924 5.924 0 011.225 1.814 5.553 5.553 0 010 4.384 5.854 5.854 0 01-1.225 1.8 5.714 5.714 0 01-1.806 1.217 5.674 5.674 0 01-4.4 0 5.733 5.733 0 01-3.015-3.015 5.484 5.484 0 01-.443-2.206zm1.668.015a4.05 4.05 0 001.178 2.877 4.154 4.154 0 001.286.872 3.845 3.845 0 001.561.321 3.8 3.8 0 001.553-.321 4.077 4.077 0 002.441-3.765 4.051 4.051 0 00-1.178-2.877 4.171 4.171 0 00-1.278-.873 3.793 3.793 0 00-1.553-.321 3.853 3.853 0 00-1.562.321 4.085 4.085 0 00-2.448 3.765zm19.862 4.729a3.3 3.3 0 01-.513.3 5.452 5.452 0 01-.774.3 7.684 7.684 0 01-.986.23 6.96 6.96 0 01-1.155.092 5.774 5.774 0 01-2.334-.451 5.2 5.2 0 01-2.854-2.992 5.979 5.979 0 01-.383-2.142 5.828 5.828 0 01.451-2.311 5.545 5.545 0 013.061-3.015 5.825 5.825 0 012.227-.429 6.887 6.887 0 01.9.061 7.109 7.109 0 01.864.168 4.384 4.384 0 01.719.252 1.932 1.932 0 01.482.3c-.081.122-.145.225-.191.306s-.094.166-.146.252-.107.186-.168.3l-.245.444a1.9 1.9 0 00-.467-.23 4.679 4.679 0 00-.559-.153 5.624 5.624 0 00-.589-.092 5.339 5.339 0 00-.543-.031 4.1 4.1 0 00-3.818 2.51 3.9 3.9 0 00-.015 3.03 4.265 4.265 0 00.826 1.286 3.941 3.941 0 001.271.9 3.9 3.9 0 001.63.337 4.54 4.54 0 00.918-.092 6.731 6.731 0 00.8-.214 4.388 4.388 0 00.6-.245.977.977 0 00.283-.184zm1.319-10.299h1.668v11.1h-1.668zm4.273 11.095v-11.1h7.284v1.515h-5.6v3.244h4.989v1.546h-4.989v3.244h5.815v1.546zm2.847-11.738q.35-.5.7-1.026t.7-1.025h1.414l-1.821 2.051zm13.034 1.254l-.6 1.362a9.83 9.83 0 00-1.247-.367 5.487 5.487 0 00-1.187-.137 2.658 2.658 0 00-1.538.4 1.191 1.191 0 00-.573 1.01 1 1 0 00.413.834 4.584 4.584 0 001.025.566q.612.253 1.331.5a6.233 6.233 0 011.332.65 3.627 3.627 0 011.025 1 2.7 2.7 0 01.413 1.553 3.166 3.166 0 01-.268 1.324 2.79 2.79 0 01-.8 1.018 3.712 3.712 0 01-1.316.658 6.628 6.628 0 01-1.844.229 7.36 7.36 0 01-1.217-.092 6.6 6.6 0 01-.979-.237 5.477 5.477 0 01-.766-.314q-.328-.169-.559-.306l.735-1.454a6.063 6.063 0 001.362.566 5 5 0 001.363.214 4.68 4.68 0 00.758-.076 3.406 3.406 0 00.864-.268 2.245 2.245 0 00.712-.512 1.148 1.148 0 00.3-.811 1.217 1.217 0 00-.237-.757 2.211 2.211 0 00-.627-.551 5.588 5.588 0 00-.888-.428q-.5-.191-1.018-.4t-1.018-.436a3.933 3.933 0 01-.888-.559 2.648 2.648 0 01-.628-.766 2.16 2.16 0 01-.237-1.048 2.9 2.9 0 01.229-1.117 2.8 2.8 0 01.69-.979 3.453 3.453 0 011.14-.689 4.434 4.434 0 011.584-.26 6.316 6.316 0 011.079.092q.527.092.956.206t.728.222c.196.079.331.13.396.16zm12.156 0l-.6 1.362a9.816 9.816 0 00-1.247-.367 5.492 5.492 0 00-1.187-.137 2.657 2.657 0 00-1.538.4 1.191 1.191 0 00-.573 1.01 1 1 0 00.413.834 4.6 4.6 0 001.026.566q.612.253 1.331.5a6.231 6.231 0 011.332.65 3.626 3.626 0 011.025 1 2.7 2.7 0 01.413 1.553 3.165 3.165 0 01-.268 1.324 2.8 2.8 0 01-.8 1.018 3.711 3.711 0 01-1.317.658 6.627 6.627 0 01-1.844.229 7.357 7.357 0 01-1.217-.092 6.6 6.6 0 01-.979-.237 5.453 5.453 0 01-.766-.314q-.328-.169-.559-.306l.735-1.454a6.056 6.056 0 001.362.566 5 5 0 001.362.214 4.681 4.681 0 00.758-.076 3.409 3.409 0 00.864-.268 2.251 2.251 0 00.712-.512 1.148 1.148 0 00.3-.811 1.217 1.217 0 00-.237-.757 2.211 2.211 0 00-.627-.551 5.588 5.588 0 00-.888-.428q-.5-.191-1.018-.4t-1.018-.436a3.936 3.936 0 01-.888-.559 2.652 2.652 0 01-.628-.766 2.161 2.161 0 01-.237-1.048 2.9 2.9 0 01.229-1.117 2.8 2.8 0 01.69-.979 3.451 3.451 0 011.14-.689 4.434 4.434 0 011.584-.26 6.317 6.317 0 011.079.092q.527.092.956.206t.728.222c.211.079.341.13.397.16zm9.006 10.484q-.077-.168-.214-.49t-.314-.742l-.382-.918q-.207-.5-.421-1.033h-3.918l-1.316 3.183h-1.652l4.943-11.616q.092.214.329.78t.566 1.355q.329.789.735 1.744t.827 1.936q.421.979.826 1.928t.742 1.745q.336.8.574 1.355t.329.773zm-4.668-4.591h2.771q-.215-.5-.405-.972c-.128-.311-.245-.6-.353-.857s-.2-.487-.283-.681-.143-.347-.184-.459a2.247 2.247 0 01-.068-.214 4.06 4.06 0 01-.085-.337 2.788 2.788 0 01-.092.337c-.04.122-.066.194-.076.214zM29.475 3.857A19.654 19.654 0 00-.001 20.876h.475l1.454 1.454c0 .155-.012.308-.012.463h.95A16.8 16.8 0 0119.648 6.011a16.6 16.6 0 017.572 1.8l.4.2 2.264-3.921z"/><path class="b" d="M9.649 36.727L30.741.713l.823.468L10.47 37.195z"/><path class="a" d="M38.35 20.351a18.721 18.721 0 01-18.7 18.7v.95a19.672 19.672 0 0019.649-19.649zM19.648 39.525v-.475A16.8 16.8 0 012.866 22.268h-.475L.967 20.844c0-.165-.018-.327-.018-.493h-.95A19.672 19.672 0 0019.648 40v-.475z"/><path class="b" d="M31.153 0l-2.464 4.213 20.793 35.553.137.234h4.931z"/></svg>