<svg xmlns="http://www.w3.org/2000/svg" width="220.807" height="34.069"><defs><style>.b{fill:#fff}</style></defs><g opacity=".4"><path class="b" d="M57.678 21.95a2.749 2.749 0 01-.431.251 4.6 4.6 0 01-.65.251 6.456 6.456 0 01-.829.193 5.85 5.85 0 01-.971.077 4.854 4.854 0 01-1.962-.379 4.377 4.377 0 01-2.4-2.515 5.034 5.034 0 01-.321-1.8 4.9 4.9 0 01.379-1.943 4.662 4.662 0 012.574-2.534 4.9 4.9 0 011.872-.36 5.79 5.79 0 01.759.051 5.968 5.968 0 01.727.142 3.682 3.682 0 01.6.212 1.632 1.632 0 01.405.251q-.1.154-.161.258t-.122.212c-.043.073-.09.157-.141.251l-.206.373a1.6 1.6 0 00-.392-.194 3.948 3.948 0 00-.47-.128 4.728 4.728 0 00-.5-.077 4.488 4.488 0 00-.456-.026 3.447 3.447 0 00-3.21 2.11 3.279 3.279 0 00-.013 2.547 3.594 3.594 0 00.695 1.081 3.312 3.312 0 001.068.759 3.279 3.279 0 001.37.283 3.811 3.811 0 00.772-.077 5.643 5.643 0 00.676-.18 3.7 3.7 0 00.5-.206.823.823 0 00.238-.155zm.168-3.989a4.587 4.587 0 01.373-1.833 4.864 4.864 0 012.534-2.56 4.694 4.694 0 013.7 0 4.841 4.841 0 011.518 1.035 4.987 4.987 0 011.03 1.525 4.668 4.668 0 010 3.686 4.928 4.928 0 01-1.03 1.512 4.8 4.8 0 01-1.518 1.023 4.771 4.771 0 01-3.7 0 4.818 4.818 0 01-2.534-2.535 4.6 4.6 0 01-.373-1.853zm1.4.013a3.406 3.406 0 00.99 2.419 3.494 3.494 0 001.081.733 3.235 3.235 0 001.312.27 3.194 3.194 0 001.306-.27 3.426 3.426 0 002.052-3.165 3.4 3.4 0 00-.99-2.418 3.505 3.505 0 00-1.074-.734 3.19 3.19 0 00-1.306-.27 3.237 3.237 0 00-1.313.27 3.434 3.434 0 00-2.058 3.165zm17.896-4.684v9.752a9.711 9.711 0 00-.7-.746l-1.183-1.183q-.67-.669-1.422-1.4t-1.422-1.4q-.668-.662-1.171-1.184t-.669-.74l-.244-.334.039.411v6.15h-1.415v-9.765a6.814 6.814 0 00.469.515q.328.335.772.778t.978.958l1.08 1.042q.547.527 1.081 1.035t.978.945q.443.438.765.772t.45.5l.245.36-.039-.437v-6.034zm7.541.513l-.5 1.145a8.257 8.257 0 00-1.048-.309 4.617 4.617 0 00-1-.116 2.233 2.233 0 00-1.293.334 1 1 0 00-.482.849.837.837 0 00.347.7 3.866 3.866 0 00.862.476q.514.212 1.119.424a5.239 5.239 0 011.12.547 3.048 3.048 0 01.862.843 2.267 2.267 0 01.347 1.306 2.66 2.66 0 01-.225 1.113 2.349 2.349 0 01-.669.856 3.12 3.12 0 01-1.107.553 5.574 5.574 0 01-1.55.193 6.185 6.185 0 01-1.023-.077 5.561 5.561 0 01-.824-.2 4.6 4.6 0 01-.643-.264q-.277-.142-.47-.257l.617-1.222a5.091 5.091 0 001.145.476 4.2 4.2 0 001.145.18 3.941 3.941 0 00.637-.064 2.865 2.865 0 00.727-.226 1.892 1.892 0 00.6-.431.967.967 0 00.251-.682 1.023 1.023 0 00-.2-.637 1.863 1.863 0 00-.527-.463 4.713 4.713 0 00-.746-.36q-.418-.161-.856-.334t-.856-.366a3.3 3.3 0 01-.746-.47 2.221 2.221 0 01-.528-.644 1.816 1.816 0 01-.2-.881 2.433 2.433 0 01.193-.939 2.356 2.356 0 01.58-.823 2.9 2.9 0 01.958-.579 3.725 3.725 0 011.332-.219 5.31 5.31 0 01.907.077q.443.077.8.174t.612.187c.17.064.279.107.332.13zm5.241 8.918a3.879 3.879 0 01-1.39-.245 3.457 3.457 0 01-1.125-.688 3.2 3.2 0 01-.76-1.068 3.413 3.413 0 01-.276-1.4v-6.034h1.415v6a2.113 2.113 0 00.161.83 2.091 2.091 0 001.126 1.119 2.309 2.309 0 001.692 0 2.063 2.063 0 00.682-.45 2.179 2.179 0 00.456-.669 2.032 2.032 0 00.168-.83v-6h1.415v6.034a3.412 3.412 0 01-.277 1.4 3.19 3.19 0 01-.759 1.068 3.442 3.442 0 01-1.132.688 3.928 3.928 0 01-1.396.245zm5.675-.103V13.29h1.415v7.989h4.631v1.338zm11.74-9.328v1.338h-2.354v7.99h-1.4v-7.99h-2.3V13.29zm6.45 9.325q-.065-.141-.18-.412t-.264-.624l-.321-.772q-.174-.418-.354-.868h-3.294l-1.106 2.676h-1.389l4.155-9.765.277.656.476 1.139q.277.663.618 1.467t.7 1.628q.354.823.695 1.621t.624 1.467l.483 1.139.276.65zm-3.924-3.86h2.329q-.18-.424-.341-.817l-.3-.72q-.135-.328-.238-.573a9.689 9.689 0 01-.155-.386q-.013-.026-.057-.18a3 3 0 01-.071-.283 2.352 2.352 0 01-.077.283c-.034.1-.055.163-.064.18zM124.4 13.29v9.752a9.715 9.715 0 00-.7-.746l-1.183-1.183q-.669-.669-1.422-1.4t-1.422-1.4q-.668-.662-1.171-1.184t-.669-.74l-.244-.334.039.411v6.15h-1.416v-9.765a6.833 6.833 0 00.47.515q.328.335.772.778t.978.958l1.081 1.042q.547.527 1.081 1.035t.978.945q.443.438.765.772t.451.5l.245.36-.038-.437v-6.034zm7.348 0v1.338h-2.354v7.99h-1.4v-7.99h-2.3V13.29zm6.705.513l-.5 1.145a8.257 8.257 0 00-1.048-.309 4.612 4.612 0 00-1-.116 2.234 2.234 0 00-1.293.334 1 1 0 00-.482.849.837.837 0 00.348.7 3.863 3.863 0 00.862.476q.514.212 1.119.424a5.238 5.238 0 011.12.547 3.043 3.043 0 01.862.843 2.266 2.266 0 01.348 1.306 2.666 2.666 0 01-.225 1.113 2.346 2.346 0 01-.669.856 3.122 3.122 0 01-1.106.553 5.575 5.575 0 01-1.55.193 6.188 6.188 0 01-1.023-.077 5.547 5.547 0 01-.823-.2 4.608 4.608 0 01-.644-.264q-.276-.142-.469-.257l.617-1.222a5.1 5.1 0 001.145.476 4.2 4.2 0 001.145.18 3.933 3.933 0 00.637-.064 2.865 2.865 0 00.727-.226 1.889 1.889 0 00.6-.431.965.965 0 00.251-.682 1.021 1.021 0 00-.2-.637 1.858 1.858 0 00-.527-.463 4.7 4.7 0 00-.746-.36q-.418-.161-.856-.334t-.856-.366a3.3 3.3 0 01-.746-.47 2.223 2.223 0 01-.528-.644 1.816 1.816 0 01-.2-.881 2.433 2.433 0 01.193-.939 2.351 2.351 0 01.579-.823 2.9 2.9 0 01.958-.579 3.728 3.728 0 011.332-.219 5.3 5.3 0 01.907.077q.443.077.8.174t.611.187c.169.064.279.107.33.13zm10.666 8.812q-.064-.141-.18-.412t-.264-.624l-.321-.772q-.173-.418-.354-.868h-3.294l-1.107 2.676h-1.389l4.155-9.765.277.656.476 1.139q.276.663.617 1.467t.7 1.628q.354.823.695 1.621t.624 1.467l.483 1.139.277.65zm-3.924-3.86h2.329q-.18-.424-.341-.817c-.108-.261-.206-.5-.3-.72s-.17-.41-.238-.573-.12-.292-.154-.386a1.753 1.753 0 01-.058-.18 3 3 0 01-.071-.283 2.3 2.3 0 01-.077.283c-.034.1-.055.163-.064.18zm12.001-4.952l-.5 1.145a8.258 8.258 0 00-1.048-.309 4.612 4.612 0 00-1-.116 2.234 2.234 0 00-1.293.334 1 1 0 00-.482.849.837.837 0 00.347.7 3.861 3.861 0 00.862.476q.514.212 1.119.424a5.236 5.236 0 011.12.547 3.043 3.043 0 01.862.843 2.267 2.267 0 01.347 1.306 2.665 2.665 0 01-.225 1.113 2.346 2.346 0 01-.669.856 3.121 3.121 0 01-1.106.553 5.575 5.575 0 01-1.55.193 6.179 6.179 0 01-1.023-.077 5.54 5.54 0 01-.824-.2 4.605 4.605 0 01-.644-.264q-.276-.142-.469-.257l.617-1.222a5.1 5.1 0 001.145.476 4.2 4.2 0 001.145.18 3.934 3.934 0 00.637-.064 2.865 2.865 0 00.727-.226 1.889 1.889 0 00.6-.431.965.965 0 00.251-.682 1.021 1.021 0 00-.2-.637 1.857 1.857 0 00-.527-.463 4.7 4.7 0 00-.746-.36q-.418-.161-.856-.334t-.855-.366a3.291 3.291 0 01-.746-.47 2.223 2.223 0 01-.528-.644 1.816 1.816 0 01-.2-.881 2.434 2.434 0 01.193-.939 2.352 2.352 0 01.579-.823 2.906 2.906 0 01.958-.579 3.728 3.728 0 011.332-.219 5.3 5.3 0 01.907.077q.443.077.8.174t.611.187c.171.064.281.107.332.13zm7.104 0l-.5 1.145a8.239 8.239 0 00-1.048-.309 4.612 4.612 0 00-1-.116 2.234 2.234 0 00-1.293.334 1 1 0 00-.482.849.837.837 0 00.348.7 3.862 3.862 0 00.862.476q.514.212 1.119.424a5.24 5.24 0 011.12.547 3.05 3.05 0 01.862.843 2.266 2.266 0 01.347 1.306 2.661 2.661 0 01-.225 1.113 2.349 2.349 0 01-.669.856 3.124 3.124 0 01-1.107.553 5.575 5.575 0 01-1.55.193 6.184 6.184 0 01-1.023-.077 5.555 5.555 0 01-.824-.2 4.626 4.626 0 01-.644-.264q-.276-.142-.469-.257l.617-1.222a5.092 5.092 0 001.145.476 4.2 4.2 0 001.145.18 3.933 3.933 0 00.637-.064 2.865 2.865 0 00.727-.226 1.894 1.894 0 00.6-.431.966.966 0 00.25-.682 1.023 1.023 0 00-.2-.637 1.864 1.864 0 00-.527-.463 4.681 4.681 0 00-.746-.36q-.418-.161-.855-.334t-.856-.366a3.292 3.292 0 01-.746-.47 2.228 2.228 0 01-.528-.644 1.816 1.816 0 01-.2-.881 2.433 2.433 0 01.193-.939 2.36 2.36 0 01.579-.823 2.906 2.906 0 01.958-.579 3.728 3.728 0 011.332-.219 5.3 5.3 0 01.907.077q.444.077.8.174t.612.187c.171.064.281.107.332.13zm1.174 4.158a4.593 4.593 0 01.373-1.833 4.866 4.866 0 012.535-2.56 4.693 4.693 0 013.7 0 4.843 4.843 0 011.518 1.035 4.981 4.981 0 011.03 1.525 4.669 4.669 0 010 3.686 4.922 4.922 0 01-1.03 1.512 4.8 4.8 0 01-1.518 1.023 4.77 4.77 0 01-3.7 0 4.82 4.82 0 01-2.535-2.535 4.61 4.61 0 01-.373-1.853zm1.4.013a3.405 3.405 0 00.99 2.419 3.492 3.492 0 001.081.733 3.233 3.233 0 001.312.27 3.193 3.193 0 001.306-.27 3.428 3.428 0 002.052-3.165 3.407 3.407 0 00-.99-2.418 3.506 3.506 0 00-1.074-.734 3.188 3.188 0 00-1.305-.27 3.239 3.239 0 00-1.313.27 3.434 3.434 0 00-2.058 3.165zm16.7 3.976a2.774 2.774 0 01-.431.251 4.583 4.583 0 01-.65.251 6.459 6.459 0 01-.829.193 5.851 5.851 0 01-.971.077 4.853 4.853 0 01-1.962-.379 4.374 4.374 0 01-2.4-2.515 5.026 5.026 0 01-.322-1.8 4.9 4.9 0 01.379-1.943 4.662 4.662 0 012.574-2.534 4.9 4.9 0 011.872-.36 5.786 5.786 0 01.759.051 5.97 5.97 0 01.727.142 3.683 3.683 0 01.6.212 1.625 1.625 0 01.405.251c-.068.1-.122.189-.161.258l-.122.212c-.043.073-.09.157-.141.251l-.206.373a1.6 1.6 0 00-.392-.194 3.93 3.93 0 00-.47-.128 4.728 4.728 0 00-.5-.077 4.488 4.488 0 00-.456-.026 3.448 3.448 0 00-3.21 2.11 3.277 3.277 0 00-.013 2.547 3.587 3.587 0 00.694 1.081 3.312 3.312 0 001.068.759 3.279 3.279 0 001.37.283 3.817 3.817 0 00.772-.077 5.659 5.659 0 00.676-.18 3.694 3.694 0 00.5-.206.823.823 0 00.238-.155zm1.109-8.66h1.4v9.328h-1.4zm3.592 9.328v-9.33h6.124v1.274h-4.709v2.726h4.194v1.3h-4.194v2.727h4.889v1.3zm2.393-9.868q.295-.424.591-.862t.592-.862h1.185l-1.531 1.724zm10.954 1.053l-.5 1.145a8.259 8.259 0 00-1.048-.309 4.612 4.612 0 00-1-.116 2.234 2.234 0 00-1.293.334 1 1 0 00-.482.849.837.837 0 00.348.7 3.854 3.854 0 00.862.476q.514.212 1.119.424a5.238 5.238 0 011.12.547 3.048 3.048 0 01.862.843 2.266 2.266 0 01.347 1.306 2.661 2.661 0 01-.225 1.113 2.346 2.346 0 01-.669.856 3.121 3.121 0 01-1.107.553 5.572 5.572 0 01-1.55.193 6.188 6.188 0 01-1.023-.077 5.55 5.55 0 01-.823-.2 4.612 4.612 0 01-.644-.264q-.276-.142-.47-.257l.618-1.222a5.1 5.1 0 001.145.476 4.2 4.2 0 001.145.18 3.934 3.934 0 00.637-.064 2.864 2.864 0 00.727-.226 1.888 1.888 0 00.6-.431.965.965 0 00.25-.682 1.023 1.023 0 00-.2-.637 1.858 1.858 0 00-.527-.463 4.7 4.7 0 00-.746-.36q-.418-.161-.856-.334t-.856-.366a3.308 3.308 0 01-.746-.47 2.226 2.226 0 01-.528-.644 1.816 1.816 0 01-.2-.881 2.439 2.439 0 01.193-.939 2.355 2.355 0 01.58-.823 2.9 2.9 0 01.958-.579 3.728 3.728 0 011.332-.219 5.31 5.31 0 01.907.077q.443.077.8.174t.612.187c.17.064.28.107.331.13zm10.227 0l-.5 1.145a8.256 8.256 0 00-1.048-.309 4.617 4.617 0 00-1-.116 2.233 2.233 0 00-1.293.334 1 1 0 00-.482.849.837.837 0 00.347.7 3.867 3.867 0 00.862.476q.514.212 1.119.424a5.238 5.238 0 011.12.547 3.047 3.047 0 01.862.843 2.266 2.266 0 01.347 1.306 2.661 2.661 0 01-.225 1.113 2.349 2.349 0 01-.669.856 3.12 3.12 0 01-1.107.553 5.571 5.571 0 01-1.55.193 6.185 6.185 0 01-1.023-.077 5.546 5.546 0 01-.823-.2 4.59 4.59 0 01-.644-.264q-.276-.142-.47-.257l.618-1.222a5.089 5.089 0 001.145.476 4.2 4.2 0 001.145.18 3.934 3.934 0 00.637-.064 2.865 2.865 0 00.727-.226 1.892 1.892 0 00.6-.431.965.965 0 00.25-.682 1.023 1.023 0 00-.2-.637 1.858 1.858 0 00-.527-.463 4.7 4.7 0 00-.746-.36q-.418-.161-.856-.334t-.856-.366a3.308 3.308 0 01-.746-.47 2.228 2.228 0 01-.528-.644 1.817 1.817 0 01-.2-.881 2.44 2.44 0 01.193-.939 2.356 2.356 0 01.58-.823 2.9 2.9 0 01.958-.579 3.728 3.728 0 011.332-.219 5.311 5.311 0 01.907.077q.443.077.8.174t.612.187c.172.064.281.107.332.13zm7.568 8.812q-.065-.141-.18-.412t-.264-.624l-.321-.772q-.174-.418-.354-.868h-3.294l-1.107 2.676h-1.389l4.155-9.765.277.656.476 1.139q.277.663.618 1.467t.7 1.628q.354.823.695 1.621t.624 1.467l.483 1.139.276.65zm-3.924-3.86h2.329q-.18-.424-.341-.817t-.3-.72q-.135-.328-.238-.573c-.068-.163-.12-.292-.155-.386q-.013-.026-.057-.18a3 3 0 01-.071-.283 2.357 2.357 0 01-.077.283c-.034.1-.055.163-.064.18zM24.78 3.238A16.523 16.523 0 000 17.546h.4l1.223 1.222c0 .13-.01.259-.01.389h.8A14.124 14.124 0 0116.516 5.052a13.956 13.956 0 016.365 1.514l.337.171 1.9-3.3z"/><path class="b" d="M8.112 31.311L25.844.599l.691.4L8.803 31.71zM32.24 17.549A15.738 15.738 0 0116.521 33.27v.8A16.538 16.538 0 0033.04 17.551z"/><path class="b" d="M16.516 33.669v-.4A14.125 14.125 0 012.408 19.16h-.392l-1.2-1.2c0-.138-.015-.275-.015-.415h-.8a16.538 16.538 0 0016.515 16.523v-.4zm9.673-33.67l-2.071 3.588 17.48 30.281.115.2h4.145z"/></g></svg>