<svg xmlns="http://www.w3.org/2000/svg" width="220.807" height="34.069" viewBox="0 0 220.807 34.069"><defs><style>.a{opacity:0.4;}.b{fill:#fff;}</style></defs><g class="a" transform="translate(-99.984 -73.057)"><g transform="translate(150.097 84.083)"><path class="b" d="M250.178,119.352a2.749,2.749,0,0,1-.431.251,4.6,4.6,0,0,1-.65.251,6.456,6.456,0,0,1-.829.193,5.85,5.85,0,0,1-.971.077,4.854,4.854,0,0,1-1.962-.379,4.377,4.377,0,0,1-2.4-2.515,5.034,5.034,0,0,1-.321-1.8,4.9,4.9,0,0,1,.379-1.943,4.662,4.662,0,0,1,2.574-2.534,4.9,4.9,0,0,1,1.872-.36,5.79,5.79,0,0,1,.759.051,5.968,5.968,0,0,1,.727.142,3.682,3.682,0,0,1,.6.212,1.632,1.632,0,0,1,.405.251q-.1.154-.161.258t-.122.212c-.043.073-.09.157-.141.251l-.206.373a1.6,1.6,0,0,0-.392-.194,3.948,3.948,0,0,0-.47-.128,4.728,4.728,0,0,0-.5-.077,4.488,4.488,0,0,0-.456-.026,3.447,3.447,0,0,0-3.21,2.11,3.279,3.279,0,0,0-.013,2.547,3.594,3.594,0,0,0,.695,1.081,3.312,3.312,0,0,0,1.068.759,3.279,3.279,0,0,0,1.37.283,3.811,3.811,0,0,0,.772-.077,5.643,5.643,0,0,0,.676-.18,3.7,3.7,0,0,0,.5-.206.823.823,0,0,0,.238-.155Z" transform="translate(-242.613 -108.428)"/><path class="b" d="M264.621,115.363a4.587,4.587,0,0,1,.373-1.833,4.864,4.864,0,0,1,2.534-2.56,4.694,4.694,0,0,1,3.7,0,4.841,4.841,0,0,1,1.518,1.035,4.987,4.987,0,0,1,1.03,1.525,4.668,4.668,0,0,1,0,3.686,4.928,4.928,0,0,1-1.03,1.512,4.8,4.8,0,0,1-1.518,1.023,4.771,4.771,0,0,1-3.7,0,4.818,4.818,0,0,1-2.534-2.535A4.6,4.6,0,0,1,264.621,115.363Zm1.4.013a3.406,3.406,0,0,0,.99,2.419,3.494,3.494,0,0,0,1.081.733,3.235,3.235,0,0,0,1.312.27,3.194,3.194,0,0,0,1.306-.27,3.426,3.426,0,0,0,2.052-3.165,3.4,3.4,0,0,0-.99-2.418,3.505,3.505,0,0,0-1.074-.734,3.19,3.19,0,0,0-1.306-.27,3.237,3.237,0,0,0-1.313.27,3.434,3.434,0,0,0-2.058,3.165Z" transform="translate(-256.888 -108.428)"/><path class="b" d="M304.434,110.075v9.752a9.711,9.711,0,0,0-.7-.746l-1.183-1.183q-.67-.669-1.422-1.4t-1.422-1.4q-.668-.662-1.171-1.184t-.669-.74l-.244-.334.039.411v6.15h-1.415v-9.765a6.814,6.814,0,0,0,.469.515q.328.335.772.778t.978.958l1.08,1.042q.547.527,1.081,1.035t.978.945q.443.438.765.772t.45.5l.245.36-.039-.437v-6.034Z" transform="translate(-277.405 -107.811)"/><path class="b" d="M329.6,111.3l-.5,1.145a8.257,8.257,0,0,0-1.048-.309,4.617,4.617,0,0,0-1-.116,2.233,2.233,0,0,0-1.293.334,1,1,0,0,0-.482.849.837.837,0,0,0,.347.7,3.866,3.866,0,0,0,.862.476q.514.212,1.119.424a5.239,5.239,0,0,1,1.12.547,3.048,3.048,0,0,1,.862.843,2.267,2.267,0,0,1,.347,1.306,2.66,2.66,0,0,1-.225,1.113,2.349,2.349,0,0,1-.669.856,3.12,3.12,0,0,1-1.107.553,5.574,5.574,0,0,1-1.55.193,6.185,6.185,0,0,1-1.023-.077,5.561,5.561,0,0,1-.824-.2,4.6,4.6,0,0,1-.643-.264q-.277-.142-.47-.257l.617-1.222a5.091,5.091,0,0,0,1.145.476,4.2,4.2,0,0,0,1.145.18,3.941,3.941,0,0,0,.637-.064,2.865,2.865,0,0,0,.727-.226,1.892,1.892,0,0,0,.6-.431.967.967,0,0,0,.251-.682,1.023,1.023,0,0,0-.2-.637,1.863,1.863,0,0,0-.527-.463,4.713,4.713,0,0,0-.746-.36q-.418-.161-.856-.334t-.856-.366a3.3,3.3,0,0,1-.746-.47,2.221,2.221,0,0,1-.528-.644,1.816,1.816,0,0,1-.2-.881,2.433,2.433,0,0,1,.193-.939,2.356,2.356,0,0,1,.58-.823,2.9,2.9,0,0,1,.958-.579,3.725,3.725,0,0,1,1.332-.219,5.31,5.31,0,0,1,.907.077q.443.077.8.174t.612.187C329.438,111.234,329.547,111.277,329.6,111.3Z" transform="translate(-295.03 -108.523)"/><path class="b" d="M349.366,120.314a3.879,3.879,0,0,1-1.39-.245,3.457,3.457,0,0,1-1.125-.688,3.2,3.2,0,0,1-.76-1.068,3.413,3.413,0,0,1-.276-1.4v-6.034h1.415v6a2.113,2.113,0,0,0,.161.83,2.091,2.091,0,0,0,1.126,1.119,2.309,2.309,0,0,0,1.692,0,2.063,2.063,0,0,0,.682-.45,2.179,2.179,0,0,0,.456-.669,2.032,2.032,0,0,0,.168-.83v-6h1.415v6.034a3.412,3.412,0,0,1-.277,1.4,3.19,3.19,0,0,1-.759,1.068,3.442,3.442,0,0,1-1.132.688A3.928,3.928,0,0,1,349.366,120.314Z" transform="translate(-309.555 -108.619)"/><path class="b" d="M372.072,120.211v-9.328h1.415v7.989h4.631v1.338Z" transform="translate(-326.586 -108.619)"/><path class="b" d="M394.3,110.883v1.338h-2.354v7.99h-1.4v-7.99h-2.3v-1.338Z" transform="translate(-337.074 -108.619)"/><path class="b" d="M411.087,119.4q-.065-.141-.18-.412t-.264-.624l-.321-.772q-.174-.418-.354-.868h-3.294l-1.106,2.676h-1.389l4.155-9.765q.077.18.277.656t.476,1.139q.277.663.618,1.467t.7,1.628q.354.823.695,1.621t.624,1.467q.283.669.483,1.139t.276.65Zm-3.924-3.86h2.329q-.18-.424-.341-.817l-.3-.72q-.135-.328-.238-.573c-.069-.163-.12-.292-.155-.386q-.013-.026-.057-.18c-.031-.1-.054-.2-.071-.283a2.352,2.352,0,0,1-.077.283c-.034.1-.055.163-.064.18Z" transform="translate(-347.411 -107.811)"/><path class="b" d="M438.936,110.075v9.752a9.715,9.715,0,0,0-.7-.746l-1.183-1.183q-.669-.669-1.422-1.4t-1.422-1.4q-.668-.662-1.171-1.184t-.669-.74l-.244-.334.039.411v6.15h-1.416v-9.765a6.833,6.833,0,0,0,.47.515q.328.335.772.778t.978.958l1.081,1.042q.547.527,1.081,1.035t.978.945q.443.438.765.772t.451.5l.245.36-.038-.437v-6.034Z" transform="translate(-364.649 -107.811)"/><path class="b" d="M463.768,110.883v1.338h-2.354v7.99h-1.4v-7.99h-2.3v-1.338Z" transform="translate(-382.133 -108.619)"/><path class="b" d="M482.639,111.3l-.5,1.145a8.257,8.257,0,0,0-1.048-.309,4.612,4.612,0,0,0-1-.116,2.234,2.234,0,0,0-1.293.334,1,1,0,0,0-.482.849.837.837,0,0,0,.348.7,3.863,3.863,0,0,0,.862.476q.514.212,1.119.424a5.238,5.238,0,0,1,1.12.547,3.043,3.043,0,0,1,.862.843,2.266,2.266,0,0,1,.348,1.306,2.666,2.666,0,0,1-.225,1.113,2.346,2.346,0,0,1-.669.856,3.122,3.122,0,0,1-1.106.553,5.575,5.575,0,0,1-1.55.193,6.188,6.188,0,0,1-1.023-.077,5.547,5.547,0,0,1-.823-.2,4.608,4.608,0,0,1-.644-.264q-.276-.142-.469-.257l.617-1.222a5.1,5.1,0,0,0,1.145.476,4.2,4.2,0,0,0,1.145.18,3.933,3.933,0,0,0,.637-.064,2.865,2.865,0,0,0,.727-.226,1.889,1.889,0,0,0,.6-.431.965.965,0,0,0,.251-.682,1.021,1.021,0,0,0-.2-.637,1.858,1.858,0,0,0-.527-.463,4.7,4.7,0,0,0-.746-.36q-.418-.161-.856-.334t-.856-.366a3.3,3.3,0,0,1-.746-.47,2.223,2.223,0,0,1-.528-.644,1.816,1.816,0,0,1-.2-.881,2.433,2.433,0,0,1,.193-.939,2.351,2.351,0,0,1,.579-.823,2.9,2.9,0,0,1,.958-.579,3.728,3.728,0,0,1,1.332-.219,5.3,5.3,0,0,1,.907.077q.443.077.8.174t.611.187C482.478,111.234,482.588,111.277,482.639,111.3Z" transform="translate(-394.299 -108.523)"/><path class="b" d="M511.641,119.4q-.064-.141-.18-.412t-.264-.624l-.321-.772q-.173-.418-.354-.868h-3.294l-1.107,2.676h-1.389l4.155-9.765q.077.18.277.656t.476,1.139q.276.663.617,1.467t.7,1.628q.354.823.695,1.621t.624,1.467q.283.669.483,1.139t.277.65Zm-3.924-3.86h2.329q-.18-.424-.341-.817c-.108-.261-.206-.5-.3-.72s-.17-.41-.238-.573-.12-.292-.154-.386a1.753,1.753,0,0,1-.058-.18c-.031-.1-.054-.2-.071-.283a2.3,2.3,0,0,1-.077.283c-.034.1-.055.163-.064.18Z" transform="translate(-412.635 -107.811)"/><path class="b" d="M535.985,111.3l-.5,1.145a8.258,8.258,0,0,0-1.048-.309,4.612,4.612,0,0,0-1-.116,2.234,2.234,0,0,0-1.293.334,1,1,0,0,0-.482.849.837.837,0,0,0,.347.7,3.861,3.861,0,0,0,.862.476q.514.212,1.119.424a5.236,5.236,0,0,1,1.12.547,3.043,3.043,0,0,1,.862.843,2.267,2.267,0,0,1,.347,1.306,2.665,2.665,0,0,1-.225,1.113,2.346,2.346,0,0,1-.669.856,3.121,3.121,0,0,1-1.106.553,5.575,5.575,0,0,1-1.55.193,6.179,6.179,0,0,1-1.023-.077,5.54,5.54,0,0,1-.824-.2,4.605,4.605,0,0,1-.644-.264q-.276-.142-.469-.257l.617-1.222a5.1,5.1,0,0,0,1.145.476,4.2,4.2,0,0,0,1.145.18,3.934,3.934,0,0,0,.637-.064,2.865,2.865,0,0,0,.727-.226,1.889,1.889,0,0,0,.6-.431.965.965,0,0,0,.251-.682,1.021,1.021,0,0,0-.2-.637,1.857,1.857,0,0,0-.527-.463,4.7,4.7,0,0,0-.746-.36q-.418-.161-.856-.334t-.855-.366a3.291,3.291,0,0,1-.746-.47,2.223,2.223,0,0,1-.528-.644,1.816,1.816,0,0,1-.2-.881,2.434,2.434,0,0,1,.193-.939,2.352,2.352,0,0,1,.579-.823,2.906,2.906,0,0,1,.958-.579,3.728,3.728,0,0,1,1.332-.219,5.3,5.3,0,0,1,.907.077q.443.077.8.174t.611.187C535.824,111.234,535.934,111.277,535.985,111.3Z" transform="translate(-428.902 -108.523)"/><path class="b" d="M556.205,111.3l-.5,1.145a8.239,8.239,0,0,0-1.048-.309,4.612,4.612,0,0,0-1-.116,2.234,2.234,0,0,0-1.293.334,1,1,0,0,0-.482.849.837.837,0,0,0,.348.7,3.862,3.862,0,0,0,.862.476q.514.212,1.119.424a5.24,5.24,0,0,1,1.12.547,3.05,3.05,0,0,1,.862.843,2.266,2.266,0,0,1,.347,1.306,2.661,2.661,0,0,1-.225,1.113,2.349,2.349,0,0,1-.669.856,3.124,3.124,0,0,1-1.107.553,5.575,5.575,0,0,1-1.55.193,6.184,6.184,0,0,1-1.023-.077,5.555,5.555,0,0,1-.824-.2,4.626,4.626,0,0,1-.644-.264q-.276-.142-.469-.257l.617-1.222a5.092,5.092,0,0,0,1.145.476,4.2,4.2,0,0,0,1.145.18,3.933,3.933,0,0,0,.637-.064,2.865,2.865,0,0,0,.727-.226,1.894,1.894,0,0,0,.6-.431.966.966,0,0,0,.25-.682,1.023,1.023,0,0,0-.2-.637,1.864,1.864,0,0,0-.527-.463,4.681,4.681,0,0,0-.746-.36q-.418-.161-.855-.334t-.856-.366a3.292,3.292,0,0,1-.746-.47,2.228,2.228,0,0,1-.528-.644,1.816,1.816,0,0,1-.2-.881,2.433,2.433,0,0,1,.193-.939,2.36,2.36,0,0,1,.579-.823,2.906,2.906,0,0,1,.958-.579,3.728,3.728,0,0,1,1.332-.219,5.3,5.3,0,0,1,.907.077q.444.077.8.174t.612.187C556.044,111.234,556.154,111.277,556.205,111.3Z" transform="translate(-442.018 -108.523)"/><path class="b" d="M570.946,115.363a4.593,4.593,0,0,1,.373-1.833,4.866,4.866,0,0,1,2.535-2.56,4.693,4.693,0,0,1,3.7,0,4.843,4.843,0,0,1,1.518,1.035,4.981,4.981,0,0,1,1.03,1.525,4.669,4.669,0,0,1,0,3.686,4.922,4.922,0,0,1-1.03,1.512,4.8,4.8,0,0,1-1.518,1.023,4.77,4.77,0,0,1-3.7,0,4.82,4.82,0,0,1-2.535-2.535A4.61,4.61,0,0,1,570.946,115.363Zm1.4.013a3.405,3.405,0,0,0,.99,2.419,3.492,3.492,0,0,0,1.081.733,3.233,3.233,0,0,0,1.312.27,3.193,3.193,0,0,0,1.306-.27,3.428,3.428,0,0,0,2.052-3.165,3.407,3.407,0,0,0-.99-2.418,3.506,3.506,0,0,0-1.074-.734,3.188,3.188,0,0,0-1.305-.27,3.239,3.239,0,0,0-1.313.27,3.434,3.434,0,0,0-2.058,3.165Z" transform="translate(-455.585 -108.428)"/><path class="b" d="M608.494,119.352a2.774,2.774,0,0,1-.431.251,4.583,4.583,0,0,1-.65.251,6.459,6.459,0,0,1-.829.193,5.851,5.851,0,0,1-.971.077,4.853,4.853,0,0,1-1.962-.379,4.374,4.374,0,0,1-2.4-2.515,5.026,5.026,0,0,1-.322-1.8,4.9,4.9,0,0,1,.379-1.943,4.662,4.662,0,0,1,2.574-2.534,4.9,4.9,0,0,1,1.872-.36,5.786,5.786,0,0,1,.759.051,5.97,5.97,0,0,1,.727.142,3.683,3.683,0,0,1,.6.212,1.625,1.625,0,0,1,.405.251c-.068.1-.122.189-.161.258s-.079.139-.122.212-.09.157-.141.251l-.206.373a1.6,1.6,0,0,0-.392-.194,3.93,3.93,0,0,0-.47-.128,4.728,4.728,0,0,0-.5-.077,4.488,4.488,0,0,0-.456-.026,3.448,3.448,0,0,0-3.21,2.11,3.277,3.277,0,0,0-.013,2.547,3.587,3.587,0,0,0,.694,1.081,3.312,3.312,0,0,0,1.068.759,3.279,3.279,0,0,0,1.37.283,3.817,3.817,0,0,0,.772-.077,5.659,5.659,0,0,0,.676-.18,3.694,3.694,0,0,0,.5-.206.823.823,0,0,0,.238-.155Z" transform="translate(-475.033 -108.428)"/><path class="b" d="M625.616,110.883h1.4v9.328h-1.4Z" transform="translate(-491.046 -108.619)"/><path class="b" d="M635.839,116.03V106.7h6.124v1.274h-4.709V110.7h4.194V112h-4.194v2.727h4.889v1.3Zm2.393-9.868q.295-.424.591-.862t.592-.862H640.6l-1.531,1.724Z" transform="translate(-497.677 -104.438)"/><path class="b" d="M662.425,111.3l-.5,1.145a8.259,8.259,0,0,0-1.048-.309,4.612,4.612,0,0,0-1-.116,2.234,2.234,0,0,0-1.293.334,1,1,0,0,0-.482.849.837.837,0,0,0,.348.7,3.854,3.854,0,0,0,.862.476q.514.212,1.119.424a5.238,5.238,0,0,1,1.12.547,3.048,3.048,0,0,1,.862.843,2.266,2.266,0,0,1,.347,1.306,2.661,2.661,0,0,1-.225,1.113,2.346,2.346,0,0,1-.669.856,3.121,3.121,0,0,1-1.107.553,5.572,5.572,0,0,1-1.55.193,6.188,6.188,0,0,1-1.023-.077,5.55,5.55,0,0,1-.823-.2,4.612,4.612,0,0,1-.644-.264q-.276-.142-.47-.257l.618-1.222a5.1,5.1,0,0,0,1.145.476,4.2,4.2,0,0,0,1.145.18,3.934,3.934,0,0,0,.637-.064,2.864,2.864,0,0,0,.727-.226,1.888,1.888,0,0,0,.6-.431.965.965,0,0,0,.25-.682,1.023,1.023,0,0,0-.2-.637,1.858,1.858,0,0,0-.527-.463,4.7,4.7,0,0,0-.746-.36q-.418-.161-.856-.334t-.856-.366a3.308,3.308,0,0,1-.746-.47,2.226,2.226,0,0,1-.528-.644,1.816,1.816,0,0,1-.2-.881,2.439,2.439,0,0,1,.193-.939,2.355,2.355,0,0,1,.58-.823,2.9,2.9,0,0,1,.958-.579,3.728,3.728,0,0,1,1.332-.219,5.31,5.31,0,0,1,.907.077q.443.077.8.174t.612.187C662.264,111.234,662.374,111.277,662.425,111.3Z" transform="translate(-510.916 -108.523)"/><path class="b" d="M691.534,111.3l-.5,1.145a8.256,8.256,0,0,0-1.048-.309,4.617,4.617,0,0,0-1-.116,2.233,2.233,0,0,0-1.293.334,1,1,0,0,0-.482.849.837.837,0,0,0,.347.7,3.867,3.867,0,0,0,.862.476q.514.212,1.119.424a5.238,5.238,0,0,1,1.12.547,3.047,3.047,0,0,1,.862.843,2.266,2.266,0,0,1,.347,1.306,2.661,2.661,0,0,1-.225,1.113,2.349,2.349,0,0,1-.669.856,3.12,3.12,0,0,1-1.107.553,5.571,5.571,0,0,1-1.55.193,6.185,6.185,0,0,1-1.023-.077,5.546,5.546,0,0,1-.823-.2,4.59,4.59,0,0,1-.644-.264q-.276-.142-.47-.257l.618-1.222a5.089,5.089,0,0,0,1.145.476,4.2,4.2,0,0,0,1.145.18,3.934,3.934,0,0,0,.637-.064,2.865,2.865,0,0,0,.727-.226,1.892,1.892,0,0,0,.6-.431.965.965,0,0,0,.25-.682,1.023,1.023,0,0,0-.2-.637,1.858,1.858,0,0,0-.527-.463,4.7,4.7,0,0,0-.746-.36q-.418-.161-.856-.334t-.856-.366a3.308,3.308,0,0,1-.746-.47,2.228,2.228,0,0,1-.528-.644,1.817,1.817,0,0,1-.2-.881,2.44,2.44,0,0,1,.193-.939,2.356,2.356,0,0,1,.58-.823,2.9,2.9,0,0,1,.958-.579,3.728,3.728,0,0,1,1.332-.219,5.311,5.311,0,0,1,.907.077q.443.077.8.174t.612.187C691.374,111.234,691.483,111.277,691.534,111.3Z" transform="translate(-529.798 -108.523)"/><path class="b" d="M711.72,119.4q-.065-.141-.18-.412t-.264-.624l-.321-.772q-.174-.418-.354-.868h-3.294L706.2,119.4h-1.389l4.155-9.765q.077.18.277.656t.476,1.139q.277.663.618,1.467t.7,1.628q.354.823.695,1.621t.624,1.467q.283.669.483,1.139t.276.65Zm-3.924-3.86h2.329q-.18-.424-.341-.817t-.3-.72q-.135-.328-.238-.573c-.068-.163-.12-.292-.155-.386q-.013-.026-.057-.18c-.031-.1-.054-.2-.071-.283a2.357,2.357,0,0,1-.077.283c-.034.1-.055.163-.064.18Z" transform="translate(-542.416 -107.811)"/></g><g transform="translate(99.984 73.056)"><g transform="translate(0 1.031)"><path class="b" d="M124.764,78.2a16.523,16.523,0,0,0-24.78,14.308h.4l1.223,1.222c0,.13-.01.259-.01.389h.8A14.124,14.124,0,0,1,116.5,80.014a13.956,13.956,0,0,1,6.365,1.514l.337.171,1.9-3.3Z" transform="translate(-99.984 -75.992)"/></g><g transform="translate(8.112 0.599)"><rect class="b" width="35.464" height="0.798" transform="matrix(0.5, -0.866, 0.866, 0.5, 0, 30.713)"/></g><g transform="translate(16.519 17.55)"><path class="b" d="M162.719,123.006A15.738,15.738,0,0,1,147,138.727v.8a16.538,16.538,0,0,0,16.519-16.519Z" transform="translate(-146.998 -123.006)"/></g><g transform="translate(0 17.55)"><path class="b" d="M116.5,139.126h0v-.4a14.125,14.125,0,0,1-14.108-14.109H102l-1.2-1.2c0-.138-.015-.275-.015-.415h-.8A16.538,16.538,0,0,0,116.5,139.525v-.4Z" transform="translate(-99.984 -123.006)"/></g><g transform="translate(24.119)"><path class="b" d="M170.7,73.056l-2.071,3.588,17.48,30.281.115.2h4.145Z" transform="translate(-168.63 -73.056)"/></g></g></g></svg>